<?xml version="1.0" encoding="UTF-8"?>
<!DOCTYPE svg PUBLIC "-//W3C//DTD SVG 1.1//EN" "http://www.w3.org/Graphics/SVG/1.1/DTD/svg11.dtd">
<svg xmlns="http://www.w3.org/2000/svg" version="1.1" width="512px" height="512px" style="shape-rendering:geometricPrecision; text-rendering:geometricPrecision; image-rendering:optimizeQuality; fill-rule:evenodd; clip-rule:evenodd" xmlns:xlink="http://www.w3.org/1999/xlink">
    <g><path style="opacity:0.971" fill="#020100" d="M 251.5,-0.5 C 254.167,-0.5 256.833,-0.5 259.5,-0.5C 263.878,5.22188 268.045,11.2219 272,17.5C 351.872,148.596 431.705,279.596 511.5,410.5C 511.5,415.167 511.5,419.833 511.5,424.5C 509.603,429.921 506.269,434.421 501.5,438C 435.438,480.965 363.104,505.465 284.5,511.5C 265.167,511.5 245.833,511.5 226.5,511.5C 147.896,505.465 75.5624,480.965 9.5,438C 4.73071,434.421 1.39738,429.921 -0.5,424.5C -0.5,419.833 -0.5,415.167 -0.5,410.5C 79.2947,279.596 159.128,148.596 239,17.5C 242.955,11.2219 247.122,5.22188 251.5,-0.5 Z"/></g>
    <g><path style="opacity:1" fill="#fafaa8" d="M 270.5,78.5 C 271.552,78.6495 272.552,78.4828 273.5,78C 265.659,63.4489 256.993,49.6156 247.5,36.5C 249.822,32.5275 252.155,28.5275 254.5,24.5C 255.167,23.1667 255.833,23.1667 256.5,24.5C 267.041,42.4161 277.708,60.2494 288.5,78C 282.405,79.7117 276.405,79.8784 270.5,78.5 Z"/></g>
    <g><path style="opacity:1" fill="#fbfb94" d="M 247.5,36.5 C 256.993,49.6156 265.659,63.4489 273.5,78C 272.552,78.4828 271.552,78.6495 270.5,78.5C 265.413,77.4544 260.413,76.1211 255.5,74.5C 250.163,75.8886 244.83,77.3886 239.5,79C 233.804,79.8299 228.137,79.6632 222.5,78.5C 230.845,64.4723 239.178,50.4723 247.5,36.5 Z"/></g>
    <g><path style="opacity:1" fill="#f4b260" d="M 285.5,95.5 C 337.571,181.306 389.905,266.972 442.5,352.5C 420.696,369.068 397.362,383.068 372.5,394.5C 288.575,424.185 205.241,422.352 122.5,389C 98.5315,378.693 76.1982,365.859 55.5,350.5C 107.679,264.13 160.346,178.13 213.5,92.5C 227.675,96.6671 241.675,96.0005 255.5,90.5C 265.017,94.8893 275.017,96.556 285.5,95.5 Z"/></g>
    <g><path style="opacity:1" fill="#f4bf7f" d="M 372.5,394.5 C 397.362,383.068 420.696,369.068 442.5,352.5C 389.905,266.972 337.571,181.306 285.5,95.5C 289.597,94.9275 293.597,93.9275 297.5,92.5C 350.654,178.13 403.321,264.13 455.5,350.5C 430.339,369.584 402.672,384.251 372.5,394.5 Z"/></g>
    <g><path style="opacity:1" fill="#050201" d="M 248.5,127.5 C 274.397,126.568 287.231,138.901 287,164.5C 281.857,184.287 269.024,193.12 248.5,191C 230.143,184.81 221.976,171.976 224,152.5C 227.683,139.651 235.85,131.318 248.5,127.5 Z"/></g>
    <g><path style="opacity:1" fill="#fa0000" d="M 250.5,143.5 C 266.678,143.168 273.178,150.834 270,166.5C 264.039,175.283 256.206,177.449 246.5,173C 236.083,161.501 237.416,151.667 250.5,143.5 Z"/></g>
    <g><path style="opacity:1" fill="#d39953" d="M 180.5,175.5 C 188.585,175.099 196.585,175.599 204.5,177C 207.848,180.419 208.348,184.252 206,188.5C 205.097,189.701 203.931,190.535 202.5,191C 194.395,191.934 186.395,191.601 178.5,190C 174.062,184.373 174.729,179.54 180.5,175.5 Z"/></g>
    <g><path style="opacity:1" fill="#d39953" d="M 308.5,175.5 C 316.585,175.099 324.585,175.599 332.5,177C 335.848,180.419 336.348,184.252 334,188.5C 333.097,189.701 331.931,190.535 330.5,191C 322.395,191.934 314.395,191.601 306.5,190C 302.062,184.373 302.729,179.54 308.5,175.5 Z"/></g>
    <g><path style="opacity:1" fill="#050201" d="M 184.5,207.5 C 210.397,206.568 223.231,218.901 223,244.5C 217.857,264.287 205.024,273.12 184.5,271C 166.143,264.81 157.976,251.976 160,232.5C 163.683,219.651 171.85,211.318 184.5,207.5 Z"/></g>
    <g><path style="opacity:1" fill="#050201" d="M 312.5,207.5 C 338.397,206.568 351.231,218.901 351,244.5C 345.857,264.287 333.024,273.12 312.5,271C 294.143,264.81 285.976,251.976 288,232.5C 291.683,219.651 299.85,211.318 312.5,207.5 Z"/></g>
    <g><path style="opacity:1" fill="#fa0000" d="M 186.5,223.5 C 202.678,223.168 209.178,230.834 206,246.5C 200.039,255.283 192.206,257.449 182.5,253C 172.083,241.501 173.416,231.667 186.5,223.5 Z"/></g>
    <g><path style="opacity:1" fill="#d39953" d="M 244.5,223.5 C 252.585,223.099 260.585,223.599 268.5,225C 271.848,228.419 272.348,232.252 270,236.5C 269.097,237.701 267.931,238.535 266.5,239C 258.395,239.934 250.395,239.601 242.5,238C 238.062,232.373 238.729,227.54 244.5,223.5 Z"/></g>
    <g><path style="opacity:1" fill="#fa0000" d="M 314.5,223.5 C 330.678,223.168 337.178,230.834 334,246.5C 328.039,255.283 320.206,257.449 310.5,253C 300.083,241.501 301.416,231.667 314.5,223.5 Z"/></g>
    <g><path style="opacity:1" fill="#d39953" d="M 196.5,287.5 C 204.585,287.099 212.585,287.599 220.5,289C 223.848,292.419 224.348,296.252 222,300.5C 221.097,301.701 219.931,302.535 218.5,303C 210.395,303.934 202.395,303.601 194.5,302C 190.062,296.373 190.729,291.54 196.5,287.5 Z"/></g>
    <g><path style="opacity:1" fill="#d39953" d="M 292.5,287.5 C 300.585,287.099 308.585,287.599 316.5,289C 319.848,292.419 320.348,296.252 318,300.5C 317.097,301.701 315.931,302.535 314.5,303C 306.395,303.934 298.395,303.601 290.5,302C 286.062,296.373 286.729,291.54 292.5,287.5 Z"/></g>
    <g><path style="opacity:1" fill="#050201" d="M 136.5,295.5 C 162.397,294.568 175.231,306.901 175,332.5C 169.857,352.287 157.024,361.12 136.5,359C 118.143,352.81 109.976,339.976 112,320.5C 115.683,307.651 123.85,299.318 136.5,295.5 Z"/></g>
    <g><path style="opacity:1" fill="#050201" d="M 360.5,295.5 C 386.397,294.568 399.231,306.901 399,332.5C 393.857,352.287 381.024,361.12 360.5,359C 342.143,352.81 333.976,339.976 336,320.5C 339.683,307.651 347.85,299.318 360.5,295.5 Z"/></g>
    <g><path style="opacity:1" fill="#fa0000" d="M 138.5,311.5 C 154.678,311.168 161.178,318.834 158,334.5C 152.039,343.283 144.206,345.449 134.5,341C 124.083,329.501 125.416,319.667 138.5,311.5 Z"/></g>
    <g><path style="opacity:1" fill="#fa0000" d="M 362.5,311.5 C 378.678,311.168 385.178,318.834 382,334.5C 376.039,343.283 368.206,345.449 358.5,341C 348.083,329.501 349.416,319.667 362.5,311.5 Z"/></g>
    <g><path style="opacity:1" fill="#050201" d="M 248.5,319.5 C 274.397,318.568 287.231,330.901 287,356.5C 281.857,376.287 269.024,385.12 248.5,383C 230.143,376.81 221.976,363.976 224,344.5C 227.683,331.651 235.85,323.318 248.5,319.5 Z"/></g>
    <g><path style="opacity:1" fill="#fa0000" d="M 250.5,335.5 C 266.678,335.168 273.178,342.834 270,358.5C 264.039,367.283 256.206,369.449 246.5,365C 236.083,353.501 237.416,343.667 250.5,335.5 Z"/></g>
    <g><path style="opacity:1" fill="#89480e" d="M 454.5,371.5 C 462.413,385.263 470.58,398.93 479,412.5C 480.426,419.978 478.259,426.144 472.5,431C 451.21,444.478 429.21,456.644 406.5,467.5C 286.488,511.14 169.488,503.973 55.5,446C 44.1667,439.333 32.8333,432.667 21.5,426C 16.5736,423.647 14.7402,419.814 16,414.5C 26.3333,397.833 36.6667,381.167 47,364.5C 144.241,431.434 249.741,448.267 363.5,415C 395.99,404.753 426.323,390.253 454.5,371.5 Z"/></g>
    <g><path style="opacity:1" fill="#9d6a3c" d="M 406.5,467.5 C 429.21,456.644 451.21,444.478 472.5,431C 478.259,426.144 480.426,419.978 479,412.5C 470.58,398.93 462.413,385.263 454.5,371.5C 457.688,369.31 460.855,366.976 464,364.5C 474.333,381.167 484.667,397.833 495,414.5C 496.26,419.814 494.426,423.647 489.5,426C 463.473,443.013 435.807,456.847 406.5,467.5 Z"/></g>
</svg>
